<?xml version="1.0" encoding="utf-8" standalone="no"?>
<!DOCTYPE svg PUBLIC "-//W3C//DTD SVG 1.1//EN"
  "http://www.w3.org/Graphics/SVG/1.1/DTD/svg11.dtd">
<svg height="288pt" version="1.1" viewBox="0 0 993.6 288" width="993.6pt" xmlns="http://www.w3.org/2000/svg" xmlns:xlink="http://www.w3.org/1999/xlink">
 <metadata>
  <rdf:RDF xmlns:cc="http://creativecommons.org/ns#" xmlns:dc="http://purl.org/dc/elements/1.1/" xmlns:rdf="http://www.w3.org/1999/02/22-rdf-syntax-ns#">
   <cc:Work>
    <dc:type rdf:resource="http://purl.org/dc/dcmitype/StillImage"/>
    <dc:date>2025-08-31T16:08:03.853209</dc:date>
    <dc:format>image/svg+xml</dc:format>
    <dc:creator>
     <cc:Agent>
      <dc:title>Matplotlib v3.4.3, https://matplotlib.org/</dc:title>
     </cc:Agent>
    </dc:creator>
   </cc:Work>
  </rdf:RDF>
 </metadata>
 <defs>
  <style type="text/css">*{stroke-linecap:butt;stroke-linejoin:round;}</style>
 </defs>
 <g id="figure_1">
  <g id="patch_1">
   <path d="M 0 288 
L 993.6 288 
L 993.6 0 
L 0 0 
z
" style="fill:none;"/>
  </g>
  <g id="axes_1">
   <g id="patch_2">
    <path d="M 27.4 268.56 
L 974.16 268.56 
L 974.16 19.44 
L 27.4 19.44 
z
" style="fill:none;"/>
   </g>
   <g id="matplotlib.axis_1"/>
   <g id="matplotlib.axis_2"/>
   <g id="line2d_1"/>
   <g id="line2d_2"/>
   <g id="line2d_3"/>
   <g id="line2d_4"/>
   <g id="legend_1">
    <g id="patch_3">
     <path d="M 204.500625 133.1775 
L 953.16 133.1775 
Q 959.16 133.1775 959.16 127.1775 
L 959.16 40.44 
Q 959.16 34.44 953.16 34.44 
L 204.500625 34.44 
Q 198.500625 34.44 198.500625 40.44 
L 198.500625 127.1775 
Q 198.500625 133.1775 204.500625 133.1775 
z
" style="fill:#ffffff;opacity:0.8;stroke:#cccccc;stroke-linejoin:miter;stroke-width:1.5;"/>
    </g>
    <g id="line2d_5">
     <path d="M 210.500625 58.735313 
L 270.500625 58.735313 
" style="fill:none;stroke:#00bfff;stroke-linecap:square;stroke-width:10;"/>
    </g>
    <g id="line2d_6"/>
    <g id="text_1">
     <!-- non-Fixed_box -->
     <g transform="translate(294.500625 69.235313)scale(0.3 -0.3)">
      <defs>
       <path d="M 3513 2113 
L 3513 0 
L 2938 0 
L 2938 2094 
Q 2938 2591 2744 2837 
Q 2550 3084 2163 3084 
Q 1697 3084 1428 2787 
Q 1159 2491 1159 1978 
L 1159 0 
L 581 0 
L 581 3500 
L 1159 3500 
L 1159 2956 
Q 1366 3272 1645 3428 
Q 1925 3584 2291 3584 
Q 2894 3584 3203 3211 
Q 3513 2838 3513 2113 
z
" id="DejaVuSans-6e" transform="scale(0.015625)"/>
       <path d="M 1959 3097 
Q 1497 3097 1228 2736 
Q 959 2375 959 1747 
Q 959 1119 1226 758 
Q 1494 397 1959 397 
Q 2419 397 2687 759 
Q 2956 1122 2956 1747 
Q 2956 2369 2687 2733 
Q 2419 3097 1959 3097 
z
M 1959 3584 
Q 2709 3584 3137 3096 
Q 3566 2609 3566 1747 
Q 3566 888 3137 398 
Q 2709 -91 1959 -91 
Q 1206 -91 779 398 
Q 353 888 353 1747 
Q 353 2609 779 3096 
Q 1206 3584 1959 3584 
z
" id="DejaVuSans-6f" transform="scale(0.015625)"/>
       <path d="M 313 2009 
L 1997 2009 
L 1997 1497 
L 313 1497 
L 313 2009 
z
" id="DejaVuSans-2d" transform="scale(0.015625)"/>
       <path d="M 628 4666 
L 3309 4666 
L 3309 4134 
L 1259 4134 
L 1259 2759 
L 3109 2759 
L 3109 2228 
L 1259 2228 
L 1259 0 
L 628 0 
L 628 4666 
z
" id="DejaVuSans-46" transform="scale(0.015625)"/>
       <path d="M 603 3500 
L 1178 3500 
L 1178 0 
L 603 0 
L 603 3500 
z
M 603 4863 
L 1178 4863 
L 1178 4134 
L 603 4134 
L 603 4863 
z
" id="DejaVuSans-69" transform="scale(0.015625)"/>
       <path d="M 3513 3500 
L 2247 1797 
L 3578 0 
L 2900 0 
L 1881 1375 
L 863 0 
L 184 0 
L 1544 1831 
L 300 3500 
L 978 3500 
L 1906 2253 
L 2834 3500 
L 3513 3500 
z
" id="DejaVuSans-78" transform="scale(0.015625)"/>
       <path d="M 3597 1894 
L 3597 1613 
L 953 1613 
Q 991 1019 1311 708 
Q 1631 397 2203 397 
Q 2534 397 2845 478 
Q 3156 559 3463 722 
L 3463 178 
Q 3153 47 2828 -22 
Q 2503 -91 2169 -91 
Q 1331 -91 842 396 
Q 353 884 353 1716 
Q 353 2575 817 3079 
Q 1281 3584 2069 3584 
Q 2775 3584 3186 3129 
Q 3597 2675 3597 1894 
z
M 3022 2063 
Q 3016 2534 2758 2815 
Q 2500 3097 2075 3097 
Q 1594 3097 1305 2825 
Q 1016 2553 972 2059 
L 3022 2063 
z
" id="DejaVuSans-65" transform="scale(0.015625)"/>
       <path d="M 2906 2969 
L 2906 4863 
L 3481 4863 
L 3481 0 
L 2906 0 
L 2906 525 
Q 2725 213 2448 61 
Q 2172 -91 1784 -91 
Q 1150 -91 751 415 
Q 353 922 353 1747 
Q 353 2572 751 3078 
Q 1150 3584 1784 3584 
Q 2172 3584 2448 3432 
Q 2725 3281 2906 2969 
z
M 947 1747 
Q 947 1113 1208 752 
Q 1469 391 1925 391 
Q 2381 391 2643 752 
Q 2906 1113 2906 1747 
Q 2906 2381 2643 2742 
Q 2381 3103 1925 3103 
Q 1469 3103 1208 2742 
Q 947 2381 947 1747 
z
" id="DejaVuSans-64" transform="scale(0.015625)"/>
       <path d="M 3263 -1063 
L 3263 -1509 
L -63 -1509 
L -63 -1063 
L 3263 -1063 
z
" id="DejaVuSans-5f" transform="scale(0.015625)"/>
       <path d="M 3116 1747 
Q 3116 2381 2855 2742 
Q 2594 3103 2138 3103 
Q 1681 3103 1420 2742 
Q 1159 2381 1159 1747 
Q 1159 1113 1420 752 
Q 1681 391 2138 391 
Q 2594 391 2855 752 
Q 3116 1113 3116 1747 
z
M 1159 2969 
Q 1341 3281 1617 3432 
Q 1894 3584 2278 3584 
Q 2916 3584 3314 3078 
Q 3713 2572 3713 1747 
Q 3713 922 3314 415 
Q 2916 -91 2278 -91 
Q 1894 -91 1617 61 
Q 1341 213 1159 525 
L 1159 0 
L 581 0 
L 581 4863 
L 1159 4863 
L 1159 2969 
z
" id="DejaVuSans-62" transform="scale(0.015625)"/>
      </defs>
      <use xlink:href="#DejaVuSans-6e"/>
      <use x="63.378906" xlink:href="#DejaVuSans-6f"/>
      <use x="124.560547" xlink:href="#DejaVuSans-6e"/>
      <use x="187.939453" xlink:href="#DejaVuSans-2d"/>
      <use x="224.023438" xlink:href="#DejaVuSans-46"/>
      <use x="274.292969" xlink:href="#DejaVuSans-69"/>
      <use x="302.076172" xlink:href="#DejaVuSans-78"/>
      <use x="358.130859" xlink:href="#DejaVuSans-65"/>
      <use x="419.654297" xlink:href="#DejaVuSans-64"/>
      <use x="483.130859" xlink:href="#DejaVuSans-5f"/>
      <use x="533.130859" xlink:href="#DejaVuSans-62"/>
      <use x="596.607422" xlink:href="#DejaVuSans-6f"/>
      <use x="654.664062" xlink:href="#DejaVuSans-78"/>
     </g>
    </g>
    <g id="line2d_7">
     <path d="M 210.500625 103.604063 
L 270.500625 103.604063 
" style="fill:none;stroke:#00ff00;stroke-linecap:square;stroke-width:10;"/>
    </g>
    <g id="line2d_8"/>
    <g id="text_2">
     <!-- non-Fixed_odor -->
     <g transform="translate(294.500625 114.104063)scale(0.3 -0.3)">
      <defs>
       <path d="M 2631 2963 
Q 2534 3019 2420 3045 
Q 2306 3072 2169 3072 
Q 1681 3072 1420 2755 
Q 1159 2438 1159 1844 
L 1159 0 
L 581 0 
L 581 3500 
L 1159 3500 
L 1159 2956 
Q 1341 3275 1631 3429 
Q 1922 3584 2338 3584 
Q 2397 3584 2469 3576 
Q 2541 3569 2628 3553 
L 2631 2963 
z
" id="DejaVuSans-72" transform="scale(0.015625)"/>
      </defs>
      <use xlink:href="#DejaVuSans-6e"/>
      <use x="63.378906" xlink:href="#DejaVuSans-6f"/>
      <use x="124.560547" xlink:href="#DejaVuSans-6e"/>
      <use x="187.939453" xlink:href="#DejaVuSans-2d"/>
      <use x="224.023438" xlink:href="#DejaVuSans-46"/>
      <use x="274.292969" xlink:href="#DejaVuSans-69"/>
      <use x="302.076172" xlink:href="#DejaVuSans-78"/>
      <use x="358.130859" xlink:href="#DejaVuSans-65"/>
      <use x="419.654297" xlink:href="#DejaVuSans-64"/>
      <use x="483.130859" xlink:href="#DejaVuSans-5f"/>
      <use x="533.130859" xlink:href="#DejaVuSans-6f"/>
      <use x="594.3125" xlink:href="#DejaVuSans-64"/>
      <use x="657.789062" xlink:href="#DejaVuSans-6f"/>
      <use x="718.970703" xlink:href="#DejaVuSans-72"/>
     </g>
    </g>
    <g id="line2d_9">
     <path d="M 582.533437 58.735313 
L 642.533437 58.735313 
" style="fill:none;stroke:#6495ed;stroke-linecap:square;stroke-width:10;"/>
    </g>
    <g id="line2d_10"/>
    <g id="text_3">
     <!-- Fixed_predict_box -->
     <g transform="translate(666.533437 69.235313)scale(0.3 -0.3)">
      <defs>
       <path d="M 1159 525 
L 1159 -1331 
L 581 -1331 
L 581 3500 
L 1159 3500 
L 1159 2969 
Q 1341 3281 1617 3432 
Q 1894 3584 2278 3584 
Q 2916 3584 3314 3078 
Q 3713 2572 3713 1747 
Q 3713 922 3314 415 
Q 2916 -91 2278 -91 
Q 1894 -91 1617 61 
Q 1341 213 1159 525 
z
M 3116 1747 
Q 3116 2381 2855 2742 
Q 2594 3103 2138 3103 
Q 1681 3103 1420 2742 
Q 1159 2381 1159 1747 
Q 1159 1113 1420 752 
Q 1681 391 2138 391 
Q 2594 391 2855 752 
Q 3116 1113 3116 1747 
z
" id="DejaVuSans-70" transform="scale(0.015625)"/>
       <path d="M 3122 3366 
L 3122 2828 
Q 2878 2963 2633 3030 
Q 2388 3097 2138 3097 
Q 1578 3097 1268 2742 
Q 959 2388 959 1747 
Q 959 1106 1268 751 
Q 1578 397 2138 397 
Q 2388 397 2633 464 
Q 2878 531 3122 666 
L 3122 134 
Q 2881 22 2623 -34 
Q 2366 -91 2075 -91 
Q 1284 -91 818 406 
Q 353 903 353 1747 
Q 353 2603 823 3093 
Q 1294 3584 2113 3584 
Q 2378 3584 2631 3529 
Q 2884 3475 3122 3366 
z
" id="DejaVuSans-63" transform="scale(0.015625)"/>
       <path d="M 1172 4494 
L 1172 3500 
L 2356 3500 
L 2356 3053 
L 1172 3053 
L 1172 1153 
Q 1172 725 1289 603 
Q 1406 481 1766 481 
L 2356 481 
L 2356 0 
L 1766 0 
Q 1100 0 847 248 
Q 594 497 594 1153 
L 594 3053 
L 172 3053 
L 172 3500 
L 594 3500 
L 594 4494 
L 1172 4494 
z
" id="DejaVuSans-74" transform="scale(0.015625)"/>
      </defs>
      <use xlink:href="#DejaVuSans-46"/>
      <use x="50.269531" xlink:href="#DejaVuSans-69"/>
      <use x="78.052734" xlink:href="#DejaVuSans-78"/>
      <use x="134.107422" xlink:href="#DejaVuSans-65"/>
      <use x="195.630859" xlink:href="#DejaVuSans-64"/>
      <use x="259.107422" xlink:href="#DejaVuSans-5f"/>
      <use x="309.107422" xlink:href="#DejaVuSans-70"/>
      <use x="372.583984" xlink:href="#DejaVuSans-72"/>
      <use x="411.447266" xlink:href="#DejaVuSans-65"/>
      <use x="472.970703" xlink:href="#DejaVuSans-64"/>
      <use x="536.447266" xlink:href="#DejaVuSans-69"/>
      <use x="564.230469" xlink:href="#DejaVuSans-63"/>
      <use x="619.210938" xlink:href="#DejaVuSans-74"/>
      <use x="658.419922" xlink:href="#DejaVuSans-5f"/>
      <use x="708.419922" xlink:href="#DejaVuSans-62"/>
      <use x="771.896484" xlink:href="#DejaVuSans-6f"/>
      <use x="829.953125" xlink:href="#DejaVuSans-78"/>
     </g>
    </g>
    <g id="line2d_11">
     <path d="M 582.533437 103.604063 
L 642.533437 103.604063 
" style="fill:none;stroke:#228b22;stroke-linecap:square;stroke-width:10;"/>
    </g>
    <g id="line2d_12"/>
    <g id="text_4">
     <!-- Fixed_predict_odor -->
     <g transform="translate(666.533437 114.104063)scale(0.3 -0.3)">
      <use xlink:href="#DejaVuSans-46"/>
      <use x="50.269531" xlink:href="#DejaVuSans-69"/>
      <use x="78.052734" xlink:href="#DejaVuSans-78"/>
      <use x="134.107422" xlink:href="#DejaVuSans-65"/>
      <use x="195.630859" xlink:href="#DejaVuSans-64"/>
      <use x="259.107422" xlink:href="#DejaVuSans-5f"/>
      <use x="309.107422" xlink:href="#DejaVuSans-70"/>
      <use x="372.583984" xlink:href="#DejaVuSans-72"/>
      <use x="411.447266" xlink:href="#DejaVuSans-65"/>
      <use x="472.970703" xlink:href="#DejaVuSans-64"/>
      <use x="536.447266" xlink:href="#DejaVuSans-69"/>
      <use x="564.230469" xlink:href="#DejaVuSans-63"/>
      <use x="619.210938" xlink:href="#DejaVuSans-74"/>
      <use x="658.419922" xlink:href="#DejaVuSans-5f"/>
      <use x="708.419922" xlink:href="#DejaVuSans-6f"/>
      <use x="769.601562" xlink:href="#DejaVuSans-64"/>
      <use x="833.078125" xlink:href="#DejaVuSans-6f"/>
      <use x="894.259766" xlink:href="#DejaVuSans-72"/>
     </g>
    </g>
   </g>
  </g>
 </g>
</svg>
