<?xml version="1.0" encoding="utf-8" standalone="no"?>
<!DOCTYPE svg PUBLIC "-//W3C//DTD SVG 1.1//EN"
  "http://www.w3.org/Graphics/SVG/1.1/DTD/svg11.dtd">
<svg height="720pt" version="1.1" viewBox="0 0 720 720" width="720pt" xmlns="http://www.w3.org/2000/svg" xmlns:xlink="http://www.w3.org/1999/xlink">
 <metadata>
  <rdf:RDF xmlns:cc="http://creativecommons.org/ns#" xmlns:dc="http://purl.org/dc/elements/1.1/" xmlns:rdf="http://www.w3.org/1999/02/22-rdf-syntax-ns#">
   <cc:Work>
    <dc:type rdf:resource="http://purl.org/dc/dcmitype/StillImage"/>
    <dc:date>2025-02-24T14:12:01.970082</dc:date>
    <dc:format>image/svg+xml</dc:format>
    <dc:creator>
     <cc:Agent>
      <dc:title>Matplotlib v3.4.3, https://matplotlib.org/</dc:title>
     </cc:Agent>
    </dc:creator>
   </cc:Work>
  </rdf:RDF>
 </metadata>
 <defs>
  <style type="text/css">*{stroke-linecap:butt;stroke-linejoin:round;}</style>
 </defs>
 <g id="figure_1">
  <g id="patch_1">
   <path d="M 0 720 
L 720 720 
L 720 0 
L 0 0 
z
" style="fill:none;"/>
  </g>
  <g id="axes_1">
   <g id="patch_2">
    <path d="M 132.17 694.08 
L 694.08 694.08 
L 694.08 25.92 
L 132.17 25.92 
z
" style="fill:#ffffff;"/>
   </g>
   <g id="matplotlib.axis_1"/>
   <g id="matplotlib.axis_2"/>
   <g id="line2d_1"/>
   <g id="line2d_2"/>
   <g id="line2d_3"/>
   <g id="line2d_4"/>
   <g id="legend_1">
    <g id="patch_3">
     <path d="M 39.095625 365.045 
L 659.08 365.045 
Q 669.08 365.045 669.08 355.045 
L 669.08 60.92 
Q 669.08 50.92 659.08 50.92 
L 39.095625 50.92 
Q 29.095625 50.92 29.095625 60.92 
L 29.095625 355.045 
Q 29.095625 365.045 39.095625 365.045 
z
" style="fill:#ffffff;opacity:0.8;stroke:#cccccc;stroke-linejoin:miter;stroke-width:2;"/>
    </g>
    <g id="line2d_5">
     <path d="M 49.095625 91.412188 
L 149.095625 91.412188 
" style="fill:none;stroke:#1f77b4;stroke-dasharray:10,16.5;stroke-dashoffset:0;stroke-width:10;"/>
    </g>
    <g id="line2d_6"/>
    <g id="text_1">
     <!-- ('box_1', 'pinene') -->
     <g style="fill:#1f77b4;" transform="translate(189.095625 108.912188)scale(0.5 -0.5)">
      <defs>
       <path d="M 1984 4856 
Q 1566 4138 1362 3434 
Q 1159 2731 1159 2009 
Q 1159 1288 1364 580 
Q 1569 -128 1984 -844 
L 1484 -844 
Q 1016 -109 783 600 
Q 550 1309 550 2009 
Q 550 2706 781 3412 
Q 1013 4119 1484 4856 
L 1984 4856 
z
" id="DejaVuSans-28" transform="scale(0.015625)"/>
       <path d="M 1147 4666 
L 1147 2931 
L 616 2931 
L 616 4666 
L 1147 4666 
z
" id="DejaVuSans-27" transform="scale(0.015625)"/>
       <path d="M 3116 1747 
Q 3116 2381 2855 2742 
Q 2594 3103 2138 3103 
Q 1681 3103 1420 2742 
Q 1159 2381 1159 1747 
Q 1159 1113 1420 752 
Q 1681 391 2138 391 
Q 2594 391 2855 752 
Q 3116 1113 3116 1747 
z
M 1159 2969 
Q 1341 3281 1617 3432 
Q 1894 3584 2278 3584 
Q 2916 3584 3314 3078 
Q 3713 2572 3713 1747 
Q 3713 922 3314 415 
Q 2916 -91 2278 -91 
Q 1894 -91 1617 61 
Q 1341 213 1159 525 
L 1159 0 
L 581 0 
L 581 4863 
L 1159 4863 
L 1159 2969 
z
" id="DejaVuSans-62" transform="scale(0.015625)"/>
       <path d="M 1959 3097 
Q 1497 3097 1228 2736 
Q 959 2375 959 1747 
Q 959 1119 1226 758 
Q 1494 397 1959 397 
Q 2419 397 2687 759 
Q 2956 1122 2956 1747 
Q 2956 2369 2687 2733 
Q 2419 3097 1959 3097 
z
M 1959 3584 
Q 2709 3584 3137 3096 
Q 3566 2609 3566 1747 
Q 3566 888 3137 398 
Q 2709 -91 1959 -91 
Q 1206 -91 779 398 
Q 353 888 353 1747 
Q 353 2609 779 3096 
Q 1206 3584 1959 3584 
z
" id="DejaVuSans-6f" transform="scale(0.015625)"/>
       <path d="M 3513 3500 
L 2247 1797 
L 3578 0 
L 2900 0 
L 1881 1375 
L 863 0 
L 184 0 
L 1544 1831 
L 300 3500 
L 978 3500 
L 1906 2253 
L 2834 3500 
L 3513 3500 
z
" id="DejaVuSans-78" transform="scale(0.015625)"/>
       <path d="M 3263 -1063 
L 3263 -1509 
L -63 -1509 
L -63 -1063 
L 3263 -1063 
z
" id="DejaVuSans-5f" transform="scale(0.015625)"/>
       <path d="M 794 531 
L 1825 531 
L 1825 4091 
L 703 3866 
L 703 4441 
L 1819 4666 
L 2450 4666 
L 2450 531 
L 3481 531 
L 3481 0 
L 794 0 
L 794 531 
z
" id="DejaVuSans-31" transform="scale(0.015625)"/>
       <path d="M 750 794 
L 1409 794 
L 1409 256 
L 897 -744 
L 494 -744 
L 750 256 
L 750 794 
z
" id="DejaVuSans-2c" transform="scale(0.015625)"/>
       <path id="DejaVuSans-20" transform="scale(0.015625)"/>
       <path d="M 1159 525 
L 1159 -1331 
L 581 -1331 
L 581 3500 
L 1159 3500 
L 1159 2969 
Q 1341 3281 1617 3432 
Q 1894 3584 2278 3584 
Q 2916 3584 3314 3078 
Q 3713 2572 3713 1747 
Q 3713 922 3314 415 
Q 2916 -91 2278 -91 
Q 1894 -91 1617 61 
Q 1341 213 1159 525 
z
M 3116 1747 
Q 3116 2381 2855 2742 
Q 2594 3103 2138 3103 
Q 1681 3103 1420 2742 
Q 1159 2381 1159 1747 
Q 1159 1113 1420 752 
Q 1681 391 2138 391 
Q 2594 391 2855 752 
Q 3116 1113 3116 1747 
z
" id="DejaVuSans-70" transform="scale(0.015625)"/>
       <path d="M 603 3500 
L 1178 3500 
L 1178 0 
L 603 0 
L 603 3500 
z
M 603 4863 
L 1178 4863 
L 1178 4134 
L 603 4134 
L 603 4863 
z
" id="DejaVuSans-69" transform="scale(0.015625)"/>
       <path d="M 3513 2113 
L 3513 0 
L 2938 0 
L 2938 2094 
Q 2938 2591 2744 2837 
Q 2550 3084 2163 3084 
Q 1697 3084 1428 2787 
Q 1159 2491 1159 1978 
L 1159 0 
L 581 0 
L 581 3500 
L 1159 3500 
L 1159 2956 
Q 1366 3272 1645 3428 
Q 1925 3584 2291 3584 
Q 2894 3584 3203 3211 
Q 3513 2838 3513 2113 
z
" id="DejaVuSans-6e" transform="scale(0.015625)"/>
       <path d="M 3597 1894 
L 3597 1613 
L 953 1613 
Q 991 1019 1311 708 
Q 1631 397 2203 397 
Q 2534 397 2845 478 
Q 3156 559 3463 722 
L 3463 178 
Q 3153 47 2828 -22 
Q 2503 -91 2169 -91 
Q 1331 -91 842 396 
Q 353 884 353 1716 
Q 353 2575 817 3079 
Q 1281 3584 2069 3584 
Q 2775 3584 3186 3129 
Q 3597 2675 3597 1894 
z
M 3022 2063 
Q 3016 2534 2758 2815 
Q 2500 3097 2075 3097 
Q 1594 3097 1305 2825 
Q 1016 2553 972 2059 
L 3022 2063 
z
" id="DejaVuSans-65" transform="scale(0.015625)"/>
       <path d="M 513 4856 
L 1013 4856 
Q 1481 4119 1714 3412 
Q 1947 2706 1947 2009 
Q 1947 1309 1714 600 
Q 1481 -109 1013 -844 
L 513 -844 
Q 928 -128 1133 580 
Q 1338 1288 1338 2009 
Q 1338 2731 1133 3434 
Q 928 4138 513 4856 
z
" id="DejaVuSans-29" transform="scale(0.015625)"/>
      </defs>
      <use xlink:href="#DejaVuSans-28"/>
      <use x="39.013672" xlink:href="#DejaVuSans-27"/>
      <use x="66.503906" xlink:href="#DejaVuSans-62"/>
      <use x="129.980469" xlink:href="#DejaVuSans-6f"/>
      <use x="188.037109" xlink:href="#DejaVuSans-78"/>
      <use x="247.216797" xlink:href="#DejaVuSans-5f"/>
      <use x="297.216797" xlink:href="#DejaVuSans-31"/>
      <use x="360.839844" xlink:href="#DejaVuSans-27"/>
      <use x="388.330078" xlink:href="#DejaVuSans-2c"/>
      <use x="420.117188" xlink:href="#DejaVuSans-20"/>
      <use x="451.904297" xlink:href="#DejaVuSans-27"/>
      <use x="479.394531" xlink:href="#DejaVuSans-70"/>
      <use x="542.871094" xlink:href="#DejaVuSans-69"/>
      <use x="570.654297" xlink:href="#DejaVuSans-6e"/>
      <use x="634.033203" xlink:href="#DejaVuSans-65"/>
      <use x="695.556641" xlink:href="#DejaVuSans-6e"/>
      <use x="758.935547" xlink:href="#DejaVuSans-65"/>
      <use x="820.458984" xlink:href="#DejaVuSans-27"/>
      <use x="847.949219" xlink:href="#DejaVuSans-29"/>
     </g>
    </g>
    <g id="line2d_7">
     <path d="M 49.095625 166.193438 
L 149.095625 166.193438 
" style="fill:none;stroke:#ff7f0e;stroke-dasharray:10,16.5;stroke-dashoffset:0;stroke-width:10;"/>
    </g>
    <g id="line2d_8"/>
    <g id="text_2">
     <!-- ('box_2', 'banana') -->
     <g style="fill:#ff7f0e;" transform="translate(189.095625 183.693438)scale(0.5 -0.5)">
      <defs>
       <path d="M 1228 531 
L 3431 531 
L 3431 0 
L 469 0 
L 469 531 
Q 828 903 1448 1529 
Q 2069 2156 2228 2338 
Q 2531 2678 2651 2914 
Q 2772 3150 2772 3378 
Q 2772 3750 2511 3984 
Q 2250 4219 1831 4219 
Q 1534 4219 1204 4116 
Q 875 4013 500 3803 
L 500 4441 
Q 881 4594 1212 4672 
Q 1544 4750 1819 4750 
Q 2544 4750 2975 4387 
Q 3406 4025 3406 3419 
Q 3406 3131 3298 2873 
Q 3191 2616 2906 2266 
Q 2828 2175 2409 1742 
Q 1991 1309 1228 531 
z
" id="DejaVuSans-32" transform="scale(0.015625)"/>
       <path d="M 2194 1759 
Q 1497 1759 1228 1600 
Q 959 1441 959 1056 
Q 959 750 1161 570 
Q 1363 391 1709 391 
Q 2188 391 2477 730 
Q 2766 1069 2766 1631 
L 2766 1759 
L 2194 1759 
z
M 3341 1997 
L 3341 0 
L 2766 0 
L 2766 531 
Q 2569 213 2275 61 
Q 1981 -91 1556 -91 
Q 1019 -91 701 211 
Q 384 513 384 1019 
Q 384 1609 779 1909 
Q 1175 2209 1959 2209 
L 2766 2209 
L 2766 2266 
Q 2766 2663 2505 2880 
Q 2244 3097 1772 3097 
Q 1472 3097 1187 3025 
Q 903 2953 641 2809 
L 641 3341 
Q 956 3463 1253 3523 
Q 1550 3584 1831 3584 
Q 2591 3584 2966 3190 
Q 3341 2797 3341 1997 
z
" id="DejaVuSans-61" transform="scale(0.015625)"/>
      </defs>
      <use xlink:href="#DejaVuSans-28"/>
      <use x="39.013672" xlink:href="#DejaVuSans-27"/>
      <use x="66.503906" xlink:href="#DejaVuSans-62"/>
      <use x="129.980469" xlink:href="#DejaVuSans-6f"/>
      <use x="188.037109" xlink:href="#DejaVuSans-78"/>
      <use x="247.216797" xlink:href="#DejaVuSans-5f"/>
      <use x="297.216797" xlink:href="#DejaVuSans-32"/>
      <use x="360.839844" xlink:href="#DejaVuSans-27"/>
      <use x="388.330078" xlink:href="#DejaVuSans-2c"/>
      <use x="420.117188" xlink:href="#DejaVuSans-20"/>
      <use x="451.904297" xlink:href="#DejaVuSans-27"/>
      <use x="479.394531" xlink:href="#DejaVuSans-62"/>
      <use x="542.871094" xlink:href="#DejaVuSans-61"/>
      <use x="604.150391" xlink:href="#DejaVuSans-6e"/>
      <use x="667.529297" xlink:href="#DejaVuSans-61"/>
      <use x="728.808594" xlink:href="#DejaVuSans-6e"/>
      <use x="792.1875" xlink:href="#DejaVuSans-61"/>
      <use x="853.466797" xlink:href="#DejaVuSans-27"/>
      <use x="880.957031" xlink:href="#DejaVuSans-29"/>
     </g>
    </g>
    <g id="line2d_9">
     <path d="M 49.095625 240.974688 
L 149.095625 240.974688 
" style="fill:none;stroke:#2ca02c;stroke-dasharray:10,16.5;stroke-dashoffset:0;stroke-width:10;"/>
    </g>
    <g id="line2d_10"/>
    <g id="text_3">
     <!-- ('box_2', 'pinene') -->
     <g style="fill:#2ca02c;" transform="translate(189.095625 258.474688)scale(0.5 -0.5)">
      <use xlink:href="#DejaVuSans-28"/>
      <use x="39.013672" xlink:href="#DejaVuSans-27"/>
      <use x="66.503906" xlink:href="#DejaVuSans-62"/>
      <use x="129.980469" xlink:href="#DejaVuSans-6f"/>
      <use x="188.037109" xlink:href="#DejaVuSans-78"/>
      <use x="247.216797" xlink:href="#DejaVuSans-5f"/>
      <use x="297.216797" xlink:href="#DejaVuSans-32"/>
      <use x="360.839844" xlink:href="#DejaVuSans-27"/>
      <use x="388.330078" xlink:href="#DejaVuSans-2c"/>
      <use x="420.117188" xlink:href="#DejaVuSans-20"/>
      <use x="451.904297" xlink:href="#DejaVuSans-27"/>
      <use x="479.394531" xlink:href="#DejaVuSans-70"/>
      <use x="542.871094" xlink:href="#DejaVuSans-69"/>
      <use x="570.654297" xlink:href="#DejaVuSans-6e"/>
      <use x="634.033203" xlink:href="#DejaVuSans-65"/>
      <use x="695.556641" xlink:href="#DejaVuSans-6e"/>
      <use x="758.935547" xlink:href="#DejaVuSans-65"/>
      <use x="820.458984" xlink:href="#DejaVuSans-27"/>
      <use x="847.949219" xlink:href="#DejaVuSans-29"/>
     </g>
    </g>
    <g id="line2d_11">
     <path d="M 49.095625 315.755938 
L 149.095625 315.755938 
" style="fill:none;stroke:#d62728;stroke-dasharray:10,16.5;stroke-dashoffset:0;stroke-width:10;"/>
    </g>
    <g id="line2d_12"/>
    <g id="text_4">
     <!-- ('box_1', 'banana') -->
     <g style="fill:#d62728;" transform="translate(189.095625 333.255938)scale(0.5 -0.5)">
      <use xlink:href="#DejaVuSans-28"/>
      <use x="39.013672" xlink:href="#DejaVuSans-27"/>
      <use x="66.503906" xlink:href="#DejaVuSans-62"/>
      <use x="129.980469" xlink:href="#DejaVuSans-6f"/>
      <use x="188.037109" xlink:href="#DejaVuSans-78"/>
      <use x="247.216797" xlink:href="#DejaVuSans-5f"/>
      <use x="297.216797" xlink:href="#DejaVuSans-31"/>
      <use x="360.839844" xlink:href="#DejaVuSans-27"/>
      <use x="388.330078" xlink:href="#DejaVuSans-2c"/>
      <use x="420.117188" xlink:href="#DejaVuSans-20"/>
      <use x="451.904297" xlink:href="#DejaVuSans-27"/>
      <use x="479.394531" xlink:href="#DejaVuSans-62"/>
      <use x="542.871094" xlink:href="#DejaVuSans-61"/>
      <use x="604.150391" xlink:href="#DejaVuSans-6e"/>
      <use x="667.529297" xlink:href="#DejaVuSans-61"/>
      <use x="728.808594" xlink:href="#DejaVuSans-6e"/>
      <use x="792.1875" xlink:href="#DejaVuSans-61"/>
      <use x="853.466797" xlink:href="#DejaVuSans-27"/>
      <use x="880.957031" xlink:href="#DejaVuSans-29"/>
     </g>
    </g>
   </g>
  </g>
 </g>
</svg>
