<?xml version="1.0" encoding="utf-8" standalone="no"?>
<!DOCTYPE svg PUBLIC "-//W3C//DTD SVG 1.1//EN"
  "http://www.w3.org/Graphics/SVG/1.1/DTD/svg11.dtd">
<svg height="288pt" version="1.1" viewBox="0 0 432 288" width="432pt" xmlns="http://www.w3.org/2000/svg" xmlns:xlink="http://www.w3.org/1999/xlink">
 <metadata>
  <rdf:RDF xmlns:cc="http://creativecommons.org/ns#" xmlns:dc="http://purl.org/dc/elements/1.1/" xmlns:rdf="http://www.w3.org/1999/02/22-rdf-syntax-ns#">
   <cc:Work>
    <dc:type rdf:resource="http://purl.org/dc/dcmitype/StillImage"/>
    <dc:date>2024-06-15T16:16:18.993986</dc:date>
    <dc:format>image/svg+xml</dc:format>
    <dc:creator>
     <cc:Agent>
      <dc:title>Matplotlib v3.4.3, https://matplotlib.org/</dc:title>
     </cc:Agent>
    </dc:creator>
   </cc:Work>
  </rdf:RDF>
 </metadata>
 <defs>
  <style type="text/css">*{stroke-linecap:butt;stroke-linejoin:round;}</style>
 </defs>
 <g id="figure_1">
  <g id="patch_1">
   <path d="M 0 288 
L 432 288 
L 432 0 
L 0 0 
z
" style="fill:none;"/>
  </g>
  <g id="axes_1">
   <g id="patch_2">
    <path d="M 54 252 
L 388.8 252 
L 388.8 34.56 
L 54 34.56 
z
" style="fill:#ffffff;"/>
   </g>
   <g id="matplotlib.axis_1"/>
   <g id="matplotlib.axis_2"/>
   <g id="line2d_1"/>
   <g id="line2d_2"/>
   <g id="line2d_3"/>
   <g id="line2d_4"/>
   <g id="line2d_5"/>
   <g id="line2d_6"/>
   <g id="line2d_7"/>
   <g id="line2d_8"/>
   <g id="line2d_9"/>
   <g id="line2d_10"/>
   <g id="line2d_11"/>
   <g id="line2d_12"/>
   <g id="line2d_13"/>
   <g id="line2d_14"/>
   <g id="line2d_15"/>
   <g id="line2d_16"/>
   <g id="line2d_17"/>
   <g id="line2d_18"/>
   <g id="line2d_19"/>
   <g id="line2d_20"/>
   <g id="line2d_21"/>
   <g id="line2d_22"/>
   <g id="line2d_23"/>
   <g id="line2d_24"/>
   <g id="line2d_25"/>
   <g id="line2d_26"/>
   <g id="line2d_27"/>
   <g id="line2d_28"/>
   <g id="line2d_29"/>
   <g id="legend_1">
    <g id="patch_3">
     <path d="M -242.1 1335.556875 
L 367.8 1335.556875 
Q 373.8 1335.556875 373.8 1329.556875 
L 373.8 55.56 
Q 373.8 49.56 367.8 49.56 
L -242.1 49.56 
Q -248.1 49.56 -248.1 55.56 
L -248.1 1329.556875 
Q -248.1 1335.556875 -242.1 1335.556875 
z
" style="fill:#ffffff;opacity:0.8;stroke:#cccccc;stroke-linejoin:miter;stroke-width:2;"/>
    </g>
    <g id="line2d_30">
     <path style="fill:none;stroke:#000000;stroke-linecap:square;stroke-width:5;"/>
    </g>
    <g id="line2d_31"/>
    <g id="text_1">
     <!-- bibas -->
     <g transform="translate(-152.1 84.355312)scale(0.3 -0.3)">
      <defs>
       <path d="M 3116 1747 
Q 3116 2381 2855 2742 
Q 2594 3103 2138 3103 
Q 1681 3103 1420 2742 
Q 1159 2381 1159 1747 
Q 1159 1113 1420 752 
Q 1681 391 2138 391 
Q 2594 391 2855 752 
Q 3116 1113 3116 1747 
z
M 1159 2969 
Q 1341 3281 1617 3432 
Q 1894 3584 2278 3584 
Q 2916 3584 3314 3078 
Q 3713 2572 3713 1747 
Q 3713 922 3314 415 
Q 2916 -91 2278 -91 
Q 1894 -91 1617 61 
Q 1341 213 1159 525 
L 1159 0 
L 581 0 
L 581 4863 
L 1159 4863 
L 1159 2969 
z
" id="DejaVuSans-62" transform="scale(0.015625)"/>
       <path d="M 603 3500 
L 1178 3500 
L 1178 0 
L 603 0 
L 603 3500 
z
M 603 4863 
L 1178 4863 
L 1178 4134 
L 603 4134 
L 603 4863 
z
" id="DejaVuSans-69" transform="scale(0.015625)"/>
       <path d="M 2194 1759 
Q 1497 1759 1228 1600 
Q 959 1441 959 1056 
Q 959 750 1161 570 
Q 1363 391 1709 391 
Q 2188 391 2477 730 
Q 2766 1069 2766 1631 
L 2766 1759 
L 2194 1759 
z
M 3341 1997 
L 3341 0 
L 2766 0 
L 2766 531 
Q 2569 213 2275 61 
Q 1981 -91 1556 -91 
Q 1019 -91 701 211 
Q 384 513 384 1019 
Q 384 1609 779 1909 
Q 1175 2209 1959 2209 
L 2766 2209 
L 2766 2266 
Q 2766 2663 2505 2880 
Q 2244 3097 1772 3097 
Q 1472 3097 1187 3025 
Q 903 2953 641 2809 
L 641 3341 
Q 956 3463 1253 3523 
Q 1550 3584 1831 3584 
Q 2591 3584 2966 3190 
Q 3341 2797 3341 1997 
z
" id="DejaVuSans-61" transform="scale(0.015625)"/>
       <path d="M 2834 3397 
L 2834 2853 
Q 2591 2978 2328 3040 
Q 2066 3103 1784 3103 
Q 1356 3103 1142 2972 
Q 928 2841 928 2578 
Q 928 2378 1081 2264 
Q 1234 2150 1697 2047 
L 1894 2003 
Q 2506 1872 2764 1633 
Q 3022 1394 3022 966 
Q 3022 478 2636 193 
Q 2250 -91 1575 -91 
Q 1294 -91 989 -36 
Q 684 19 347 128 
L 347 722 
Q 666 556 975 473 
Q 1284 391 1588 391 
Q 1994 391 2212 530 
Q 2431 669 2431 922 
Q 2431 1156 2273 1281 
Q 2116 1406 1581 1522 
L 1381 1569 
Q 847 1681 609 1914 
Q 372 2147 372 2553 
Q 372 3047 722 3315 
Q 1072 3584 1716 3584 
Q 2034 3584 2315 3537 
Q 2597 3491 2834 3397 
z
" id="DejaVuSans-73" transform="scale(0.015625)"/>
      </defs>
      <use xlink:href="#DejaVuSans-62"/>
      <use x="63.476562" xlink:href="#DejaVuSans-69"/>
      <use x="91.259766" xlink:href="#DejaVuSans-62"/>
      <use x="154.736328" xlink:href="#DejaVuSans-61"/>
      <use x="216.015625" xlink:href="#DejaVuSans-73"/>
     </g>
    </g>
    <g id="line2d_32">
     <path style="fill:none;stroke:#000000;stroke-linecap:square;stroke-width:5;"/>
    </g>
    <g id="line2d_33"/>
    <g id="text_2">
     <!-- bring them home -->
     <g transform="translate(-152.1 128.389688)scale(0.3 -0.3)">
      <defs>
       <path d="M 2631 2963 
Q 2534 3019 2420 3045 
Q 2306 3072 2169 3072 
Q 1681 3072 1420 2755 
Q 1159 2438 1159 1844 
L 1159 0 
L 581 0 
L 581 3500 
L 1159 3500 
L 1159 2956 
Q 1341 3275 1631 3429 
Q 1922 3584 2338 3584 
Q 2397 3584 2469 3576 
Q 2541 3569 2628 3553 
L 2631 2963 
z
" id="DejaVuSans-72" transform="scale(0.015625)"/>
       <path d="M 3513 2113 
L 3513 0 
L 2938 0 
L 2938 2094 
Q 2938 2591 2744 2837 
Q 2550 3084 2163 3084 
Q 1697 3084 1428 2787 
Q 1159 2491 1159 1978 
L 1159 0 
L 581 0 
L 581 3500 
L 1159 3500 
L 1159 2956 
Q 1366 3272 1645 3428 
Q 1925 3584 2291 3584 
Q 2894 3584 3203 3211 
Q 3513 2838 3513 2113 
z
" id="DejaVuSans-6e" transform="scale(0.015625)"/>
       <path d="M 2906 1791 
Q 2906 2416 2648 2759 
Q 2391 3103 1925 3103 
Q 1463 3103 1205 2759 
Q 947 2416 947 1791 
Q 947 1169 1205 825 
Q 1463 481 1925 481 
Q 2391 481 2648 825 
Q 2906 1169 2906 1791 
z
M 3481 434 
Q 3481 -459 3084 -895 
Q 2688 -1331 1869 -1331 
Q 1566 -1331 1297 -1286 
Q 1028 -1241 775 -1147 
L 775 -588 
Q 1028 -725 1275 -790 
Q 1522 -856 1778 -856 
Q 2344 -856 2625 -561 
Q 2906 -266 2906 331 
L 2906 616 
Q 2728 306 2450 153 
Q 2172 0 1784 0 
Q 1141 0 747 490 
Q 353 981 353 1791 
Q 353 2603 747 3093 
Q 1141 3584 1784 3584 
Q 2172 3584 2450 3431 
Q 2728 3278 2906 2969 
L 2906 3500 
L 3481 3500 
L 3481 434 
z
" id="DejaVuSans-67" transform="scale(0.015625)"/>
       <path id="DejaVuSans-20" transform="scale(0.015625)"/>
       <path d="M 1172 4494 
L 1172 3500 
L 2356 3500 
L 2356 3053 
L 1172 3053 
L 1172 1153 
Q 1172 725 1289 603 
Q 1406 481 1766 481 
L 2356 481 
L 2356 0 
L 1766 0 
Q 1100 0 847 248 
Q 594 497 594 1153 
L 594 3053 
L 172 3053 
L 172 3500 
L 594 3500 
L 594 4494 
L 1172 4494 
z
" id="DejaVuSans-74" transform="scale(0.015625)"/>
       <path d="M 3513 2113 
L 3513 0 
L 2938 0 
L 2938 2094 
Q 2938 2591 2744 2837 
Q 2550 3084 2163 3084 
Q 1697 3084 1428 2787 
Q 1159 2491 1159 1978 
L 1159 0 
L 581 0 
L 581 4863 
L 1159 4863 
L 1159 2956 
Q 1366 3272 1645 3428 
Q 1925 3584 2291 3584 
Q 2894 3584 3203 3211 
Q 3513 2838 3513 2113 
z
" id="DejaVuSans-68" transform="scale(0.015625)"/>
       <path d="M 3597 1894 
L 3597 1613 
L 953 1613 
Q 991 1019 1311 708 
Q 1631 397 2203 397 
Q 2534 397 2845 478 
Q 3156 559 3463 722 
L 3463 178 
Q 3153 47 2828 -22 
Q 2503 -91 2169 -91 
Q 1331 -91 842 396 
Q 353 884 353 1716 
Q 353 2575 817 3079 
Q 1281 3584 2069 3584 
Q 2775 3584 3186 3129 
Q 3597 2675 3597 1894 
z
M 3022 2063 
Q 3016 2534 2758 2815 
Q 2500 3097 2075 3097 
Q 1594 3097 1305 2825 
Q 1016 2553 972 2059 
L 3022 2063 
z
" id="DejaVuSans-65" transform="scale(0.015625)"/>
       <path d="M 3328 2828 
Q 3544 3216 3844 3400 
Q 4144 3584 4550 3584 
Q 5097 3584 5394 3201 
Q 5691 2819 5691 2113 
L 5691 0 
L 5113 0 
L 5113 2094 
Q 5113 2597 4934 2840 
Q 4756 3084 4391 3084 
Q 3944 3084 3684 2787 
Q 3425 2491 3425 1978 
L 3425 0 
L 2847 0 
L 2847 2094 
Q 2847 2600 2669 2842 
Q 2491 3084 2119 3084 
Q 1678 3084 1418 2786 
Q 1159 2488 1159 1978 
L 1159 0 
L 581 0 
L 581 3500 
L 1159 3500 
L 1159 2956 
Q 1356 3278 1631 3431 
Q 1906 3584 2284 3584 
Q 2666 3584 2933 3390 
Q 3200 3197 3328 2828 
z
" id="DejaVuSans-6d" transform="scale(0.015625)"/>
       <path d="M 1959 3097 
Q 1497 3097 1228 2736 
Q 959 2375 959 1747 
Q 959 1119 1226 758 
Q 1494 397 1959 397 
Q 2419 397 2687 759 
Q 2956 1122 2956 1747 
Q 2956 2369 2687 2733 
Q 2419 3097 1959 3097 
z
M 1959 3584 
Q 2709 3584 3137 3096 
Q 3566 2609 3566 1747 
Q 3566 888 3137 398 
Q 2709 -91 1959 -91 
Q 1206 -91 779 398 
Q 353 888 353 1747 
Q 353 2609 779 3096 
Q 1206 3584 1959 3584 
z
" id="DejaVuSans-6f" transform="scale(0.015625)"/>
      </defs>
      <use xlink:href="#DejaVuSans-62"/>
      <use x="63.476562" xlink:href="#DejaVuSans-72"/>
      <use x="104.589844" xlink:href="#DejaVuSans-69"/>
      <use x="132.373047" xlink:href="#DejaVuSans-6e"/>
      <use x="195.751953" xlink:href="#DejaVuSans-67"/>
      <use x="259.228516" xlink:href="#DejaVuSans-20"/>
      <use x="291.015625" xlink:href="#DejaVuSans-74"/>
      <use x="330.224609" xlink:href="#DejaVuSans-68"/>
      <use x="393.603516" xlink:href="#DejaVuSans-65"/>
      <use x="455.126953" xlink:href="#DejaVuSans-6d"/>
      <use x="552.539062" xlink:href="#DejaVuSans-20"/>
      <use x="584.326172" xlink:href="#DejaVuSans-68"/>
      <use x="647.705078" xlink:href="#DejaVuSans-6f"/>
      <use x="708.886719" xlink:href="#DejaVuSans-6d"/>
      <use x="806.298828" xlink:href="#DejaVuSans-65"/>
     </g>
    </g>
    <g id="line2d_34">
     <path style="fill:none;stroke:#52005e;stroke-linecap:square;stroke-width:5;"/>
    </g>
    <g id="line2d_35"/>
    <g id="text_3">
     <!-- encampment -->
     <g transform="translate(-152.1 172.424062)scale(0.3 -0.3)">
      <defs>
       <path d="M 3122 3366 
L 3122 2828 
Q 2878 2963 2633 3030 
Q 2388 3097 2138 3097 
Q 1578 3097 1268 2742 
Q 959 2388 959 1747 
Q 959 1106 1268 751 
Q 1578 397 2138 397 
Q 2388 397 2633 464 
Q 2878 531 3122 666 
L 3122 134 
Q 2881 22 2623 -34 
Q 2366 -91 2075 -91 
Q 1284 -91 818 406 
Q 353 903 353 1747 
Q 353 2603 823 3093 
Q 1294 3584 2113 3584 
Q 2378 3584 2631 3529 
Q 2884 3475 3122 3366 
z
" id="DejaVuSans-63" transform="scale(0.015625)"/>
       <path d="M 1159 525 
L 1159 -1331 
L 581 -1331 
L 581 3500 
L 1159 3500 
L 1159 2969 
Q 1341 3281 1617 3432 
Q 1894 3584 2278 3584 
Q 2916 3584 3314 3078 
Q 3713 2572 3713 1747 
Q 3713 922 3314 415 
Q 2916 -91 2278 -91 
Q 1894 -91 1617 61 
Q 1341 213 1159 525 
z
M 3116 1747 
Q 3116 2381 2855 2742 
Q 2594 3103 2138 3103 
Q 1681 3103 1420 2742 
Q 1159 2381 1159 1747 
Q 1159 1113 1420 752 
Q 1681 391 2138 391 
Q 2594 391 2855 752 
Q 3116 1113 3116 1747 
z
" id="DejaVuSans-70" transform="scale(0.015625)"/>
      </defs>
      <use xlink:href="#DejaVuSans-65"/>
      <use x="61.523438" xlink:href="#DejaVuSans-6e"/>
      <use x="124.902344" xlink:href="#DejaVuSans-63"/>
      <use x="179.882812" xlink:href="#DejaVuSans-61"/>
      <use x="241.162109" xlink:href="#DejaVuSans-6d"/>
      <use x="338.574219" xlink:href="#DejaVuSans-70"/>
      <use x="402.050781" xlink:href="#DejaVuSans-6d"/>
      <use x="499.462891" xlink:href="#DejaVuSans-65"/>
      <use x="560.986328" xlink:href="#DejaVuSans-6e"/>
      <use x="624.365234" xlink:href="#DejaVuSans-74"/>
     </g>
    </g>
    <g id="line2d_36">
     <path style="fill:none;stroke:#7d008e;stroke-linecap:square;stroke-width:5;"/>
    </g>
    <g id="line2d_37"/>
    <g id="text_4">
     <!-- fight for liberation -->
     <g transform="translate(-152.1 216.458437)scale(0.3 -0.3)">
      <defs>
       <path d="M 2375 4863 
L 2375 4384 
L 1825 4384 
Q 1516 4384 1395 4259 
Q 1275 4134 1275 3809 
L 1275 3500 
L 2222 3500 
L 2222 3053 
L 1275 3053 
L 1275 0 
L 697 0 
L 697 3053 
L 147 3053 
L 147 3500 
L 697 3500 
L 697 3744 
Q 697 4328 969 4595 
Q 1241 4863 1831 4863 
L 2375 4863 
z
" id="DejaVuSans-66" transform="scale(0.015625)"/>
       <path d="M 603 4863 
L 1178 4863 
L 1178 0 
L 603 0 
L 603 4863 
z
" id="DejaVuSans-6c" transform="scale(0.015625)"/>
      </defs>
      <use xlink:href="#DejaVuSans-66"/>
      <use x="35.205078" xlink:href="#DejaVuSans-69"/>
      <use x="62.988281" xlink:href="#DejaVuSans-67"/>
      <use x="126.464844" xlink:href="#DejaVuSans-68"/>
      <use x="189.84375" xlink:href="#DejaVuSans-74"/>
      <use x="229.052734" xlink:href="#DejaVuSans-20"/>
      <use x="260.839844" xlink:href="#DejaVuSans-66"/>
      <use x="296.044922" xlink:href="#DejaVuSans-6f"/>
      <use x="357.226562" xlink:href="#DejaVuSans-72"/>
      <use x="398.339844" xlink:href="#DejaVuSans-20"/>
      <use x="430.126953" xlink:href="#DejaVuSans-6c"/>
      <use x="457.910156" xlink:href="#DejaVuSans-69"/>
      <use x="485.693359" xlink:href="#DejaVuSans-62"/>
      <use x="549.169922" xlink:href="#DejaVuSans-65"/>
      <use x="610.693359" xlink:href="#DejaVuSans-72"/>
      <use x="651.806641" xlink:href="#DejaVuSans-61"/>
      <use x="713.085938" xlink:href="#DejaVuSans-74"/>
      <use x="752.294922" xlink:href="#DejaVuSans-69"/>
      <use x="780.078125" xlink:href="#DejaVuSans-6f"/>
      <use x="841.259766" xlink:href="#DejaVuSans-6e"/>
     </g>
    </g>
    <g id="line2d_38">
     <path style="fill:none;stroke:#7f009a;stroke-linecap:square;stroke-width:5;"/>
    </g>
    <g id="line2d_39"/>
    <g id="text_5">
     <!-- free gaza -->
     <g transform="translate(-152.1 260.492812)scale(0.3 -0.3)">
      <defs>
       <path d="M 353 3500 
L 3084 3500 
L 3084 2975 
L 922 459 
L 3084 459 
L 3084 0 
L 275 0 
L 275 525 
L 2438 3041 
L 353 3041 
L 353 3500 
z
" id="DejaVuSans-7a" transform="scale(0.015625)"/>
      </defs>
      <use xlink:href="#DejaVuSans-66"/>
      <use x="35.205078" xlink:href="#DejaVuSans-72"/>
      <use x="74.068359" xlink:href="#DejaVuSans-65"/>
      <use x="135.591797" xlink:href="#DejaVuSans-65"/>
      <use x="197.115234" xlink:href="#DejaVuSans-20"/>
      <use x="228.902344" xlink:href="#DejaVuSans-67"/>
      <use x="292.378906" xlink:href="#DejaVuSans-61"/>
      <use x="353.658203" xlink:href="#DejaVuSans-7a"/>
      <use x="406.148438" xlink:href="#DejaVuSans-61"/>
     </g>
    </g>
    <g id="line2d_40">
     <path style="fill:none;stroke:#2100a6;stroke-linecap:square;stroke-width:5;"/>
    </g>
    <g id="line2d_41"/>
    <g id="text_6">
     <!-- free palestine -->
     <g transform="translate(-152.1 304.527187)scale(0.3 -0.3)">
      <use xlink:href="#DejaVuSans-66"/>
      <use x="35.205078" xlink:href="#DejaVuSans-72"/>
      <use x="74.068359" xlink:href="#DejaVuSans-65"/>
      <use x="135.591797" xlink:href="#DejaVuSans-65"/>
      <use x="197.115234" xlink:href="#DejaVuSans-20"/>
      <use x="228.902344" xlink:href="#DejaVuSans-70"/>
      <use x="292.378906" xlink:href="#DejaVuSans-61"/>
      <use x="353.658203" xlink:href="#DejaVuSans-6c"/>
      <use x="381.441406" xlink:href="#DejaVuSans-65"/>
      <use x="442.964844" xlink:href="#DejaVuSans-73"/>
      <use x="495.064453" xlink:href="#DejaVuSans-74"/>
      <use x="534.273438" xlink:href="#DejaVuSans-69"/>
      <use x="562.056641" xlink:href="#DejaVuSans-6e"/>
      <use x="625.435547" xlink:href="#DejaVuSans-65"/>
     </g>
    </g>
    <g id="line2d_42">
     <path style="fill:none;stroke:#0000c1;stroke-linecap:square;stroke-width:5;"/>
    </g>
    <g id="line2d_43"/>
    <g id="text_7">
     <!-- from the river to the sea -->
     <g transform="translate(-152.1 348.561563)scale(0.3 -0.3)">
      <defs>
       <path d="M 191 3500 
L 800 3500 
L 1894 563 
L 2988 3500 
L 3597 3500 
L 2284 0 
L 1503 0 
L 191 3500 
z
" id="DejaVuSans-76" transform="scale(0.015625)"/>
      </defs>
      <use xlink:href="#DejaVuSans-66"/>
      <use x="35.205078" xlink:href="#DejaVuSans-72"/>
      <use x="74.068359" xlink:href="#DejaVuSans-6f"/>
      <use x="135.25" xlink:href="#DejaVuSans-6d"/>
      <use x="232.662109" xlink:href="#DejaVuSans-20"/>
      <use x="264.449219" xlink:href="#DejaVuSans-74"/>
      <use x="303.658203" xlink:href="#DejaVuSans-68"/>
      <use x="367.037109" xlink:href="#DejaVuSans-65"/>
      <use x="428.560547" xlink:href="#DejaVuSans-20"/>
      <use x="460.347656" xlink:href="#DejaVuSans-72"/>
      <use x="501.460938" xlink:href="#DejaVuSans-69"/>
      <use x="529.244141" xlink:href="#DejaVuSans-76"/>
      <use x="588.423828" xlink:href="#DejaVuSans-65"/>
      <use x="649.947266" xlink:href="#DejaVuSans-72"/>
      <use x="691.060547" xlink:href="#DejaVuSans-20"/>
      <use x="722.847656" xlink:href="#DejaVuSans-74"/>
      <use x="762.056641" xlink:href="#DejaVuSans-6f"/>
      <use x="823.238281" xlink:href="#DejaVuSans-20"/>
      <use x="855.025391" xlink:href="#DejaVuSans-74"/>
      <use x="894.234375" xlink:href="#DejaVuSans-68"/>
      <use x="957.613281" xlink:href="#DejaVuSans-65"/>
      <use x="1019.136719" xlink:href="#DejaVuSans-20"/>
      <use x="1050.923828" xlink:href="#DejaVuSans-73"/>
      <use x="1103.023438" xlink:href="#DejaVuSans-65"/>
      <use x="1164.546875" xlink:href="#DejaVuSans-61"/>
     </g>
    </g>
    <g id="line2d_44">
     <path style="fill:none;stroke:#0010dd;stroke-linecap:square;stroke-width:5;"/>
    </g>
    <g id="line2d_45"/>
    <g id="text_8">
     <!-- fuck israel -->
     <g transform="translate(-152.1 392.595937)scale(0.3 -0.3)">
      <defs>
       <path d="M 544 1381 
L 544 3500 
L 1119 3500 
L 1119 1403 
Q 1119 906 1312 657 
Q 1506 409 1894 409 
Q 2359 409 2629 706 
Q 2900 1003 2900 1516 
L 2900 3500 
L 3475 3500 
L 3475 0 
L 2900 0 
L 2900 538 
Q 2691 219 2414 64 
Q 2138 -91 1772 -91 
Q 1169 -91 856 284 
Q 544 659 544 1381 
z
M 1991 3584 
L 1991 3584 
z
" id="DejaVuSans-75" transform="scale(0.015625)"/>
       <path d="M 581 4863 
L 1159 4863 
L 1159 1991 
L 2875 3500 
L 3609 3500 
L 1753 1863 
L 3688 0 
L 2938 0 
L 1159 1709 
L 1159 0 
L 581 0 
L 581 4863 
z
" id="DejaVuSans-6b" transform="scale(0.015625)"/>
      </defs>
      <use xlink:href="#DejaVuSans-66"/>
      <use x="35.205078" xlink:href="#DejaVuSans-75"/>
      <use x="98.583984" xlink:href="#DejaVuSans-63"/>
      <use x="153.564453" xlink:href="#DejaVuSans-6b"/>
      <use x="211.474609" xlink:href="#DejaVuSans-20"/>
      <use x="243.261719" xlink:href="#DejaVuSans-69"/>
      <use x="271.044922" xlink:href="#DejaVuSans-73"/>
      <use x="323.144531" xlink:href="#DejaVuSans-72"/>
      <use x="364.257812" xlink:href="#DejaVuSans-61"/>
      <use x="425.537109" xlink:href="#DejaVuSans-65"/>
      <use x="487.060547" xlink:href="#DejaVuSans-6c"/>
     </g>
    </g>
    <g id="line2d_46">
     <path style="fill:none;stroke:#0062dd;stroke-linecap:square;stroke-width:5;"/>
    </g>
    <g id="line2d_47"/>
    <g id="text_9">
     <!-- gaza -->
     <g transform="translate(-152.1 436.630312)scale(0.3 -0.3)">
      <use xlink:href="#DejaVuSans-67"/>
      <use x="63.476562" xlink:href="#DejaVuSans-61"/>
      <use x="124.755859" xlink:href="#DejaVuSans-7a"/>
      <use x="177.246094" xlink:href="#DejaVuSans-61"/>
     </g>
    </g>
    <g id="line2d_48">
     <path style="fill:none;stroke:#0089dd;stroke-linecap:square;stroke-width:5;"/>
    </g>
    <g id="line2d_49"/>
    <g id="text_10">
     <!-- globalize the intifada -->
     <g transform="translate(-152.1 480.664688)scale(0.3 -0.3)">
      <defs>
       <path d="M 2906 2969 
L 2906 4863 
L 3481 4863 
L 3481 0 
L 2906 0 
L 2906 525 
Q 2725 213 2448 61 
Q 2172 -91 1784 -91 
Q 1150 -91 751 415 
Q 353 922 353 1747 
Q 353 2572 751 3078 
Q 1150 3584 1784 3584 
Q 2172 3584 2448 3432 
Q 2725 3281 2906 2969 
z
M 947 1747 
Q 947 1113 1208 752 
Q 1469 391 1925 391 
Q 2381 391 2643 752 
Q 2906 1113 2906 1747 
Q 2906 2381 2643 2742 
Q 2381 3103 1925 3103 
Q 1469 3103 1208 2742 
Q 947 2381 947 1747 
z
" id="DejaVuSans-64" transform="scale(0.015625)"/>
      </defs>
      <use xlink:href="#DejaVuSans-67"/>
      <use x="63.476562" xlink:href="#DejaVuSans-6c"/>
      <use x="91.259766" xlink:href="#DejaVuSans-6f"/>
      <use x="152.441406" xlink:href="#DejaVuSans-62"/>
      <use x="215.917969" xlink:href="#DejaVuSans-61"/>
      <use x="277.197266" xlink:href="#DejaVuSans-6c"/>
      <use x="304.980469" xlink:href="#DejaVuSans-69"/>
      <use x="332.763672" xlink:href="#DejaVuSans-7a"/>
      <use x="385.253906" xlink:href="#DejaVuSans-65"/>
      <use x="446.777344" xlink:href="#DejaVuSans-20"/>
      <use x="478.564453" xlink:href="#DejaVuSans-74"/>
      <use x="517.773438" xlink:href="#DejaVuSans-68"/>
      <use x="581.152344" xlink:href="#DejaVuSans-65"/>
      <use x="642.675781" xlink:href="#DejaVuSans-20"/>
      <use x="674.462891" xlink:href="#DejaVuSans-69"/>
      <use x="702.246094" xlink:href="#DejaVuSans-6e"/>
      <use x="765.625" xlink:href="#DejaVuSans-74"/>
      <use x="804.833984" xlink:href="#DejaVuSans-69"/>
      <use x="832.617188" xlink:href="#DejaVuSans-66"/>
      <use x="867.822266" xlink:href="#DejaVuSans-61"/>
      <use x="929.101562" xlink:href="#DejaVuSans-64"/>
      <use x="992.578125" xlink:href="#DejaVuSans-61"/>
     </g>
    </g>
    <g id="line2d_50">
     <path style="fill:none;stroke:#009dd2;stroke-linecap:square;stroke-width:5;"/>
    </g>
    <g id="line2d_51"/>
    <g id="text_11">
     <!-- hamas -->
     <g transform="translate(-152.1 524.699063)scale(0.3 -0.3)">
      <use xlink:href="#DejaVuSans-68"/>
      <use x="63.378906" xlink:href="#DejaVuSans-61"/>
      <use x="124.658203" xlink:href="#DejaVuSans-6d"/>
      <use x="222.070312" xlink:href="#DejaVuSans-61"/>
      <use x="283.349609" xlink:href="#DejaVuSans-73"/>
     </g>
    </g>
    <g id="line2d_52">
     <path style="fill:none;stroke:#00a8af;stroke-linecap:square;stroke-width:5;"/>
    </g>
    <g id="line2d_53"/>
    <g id="text_12">
     <!-- hostages -->
     <g transform="translate(-152.1 568.733438)scale(0.3 -0.3)">
      <use xlink:href="#DejaVuSans-68"/>
      <use x="63.378906" xlink:href="#DejaVuSans-6f"/>
      <use x="124.560547" xlink:href="#DejaVuSans-73"/>
      <use x="176.660156" xlink:href="#DejaVuSans-74"/>
      <use x="215.869141" xlink:href="#DejaVuSans-61"/>
      <use x="277.148438" xlink:href="#DejaVuSans-67"/>
      <use x="340.625" xlink:href="#DejaVuSans-65"/>
      <use x="402.148438" xlink:href="#DejaVuSans-73"/>
     </g>
    </g>
    <g id="line2d_54">
     <path style="fill:none;stroke:#00aa96;stroke-linecap:square;stroke-width:5;"/>
    </g>
    <g id="line2d_55"/>
    <g id="text_13">
     <!-- idf -->
     <g transform="translate(-152.1 612.767812)scale(0.3 -0.3)">
      <use xlink:href="#DejaVuSans-69"/>
      <use x="27.783203" xlink:href="#DejaVuSans-64"/>
      <use x="91.259766" xlink:href="#DejaVuSans-66"/>
     </g>
    </g>
    <g id="line2d_56">
     <path style="fill:none;stroke:#00a562;stroke-linecap:square;stroke-width:5;"/>
    </g>
    <g id="line2d_57"/>
    <g id="text_14">
     <!-- intifada -->
     <g transform="translate(-152.1 656.802187)scale(0.3 -0.3)">
      <use xlink:href="#DejaVuSans-69"/>
      <use x="27.783203" xlink:href="#DejaVuSans-6e"/>
      <use x="91.162109" xlink:href="#DejaVuSans-74"/>
      <use x="130.371094" xlink:href="#DejaVuSans-69"/>
      <use x="158.154297" xlink:href="#DejaVuSans-66"/>
      <use x="193.359375" xlink:href="#DejaVuSans-61"/>
      <use x="254.638672" xlink:href="#DejaVuSans-64"/>
      <use x="318.115234" xlink:href="#DejaVuSans-61"/>
     </g>
    </g>
    <g id="line2d_58">
     <path style="fill:none;stroke:#009a05;stroke-linecap:square;stroke-width:5;"/>
    </g>
    <g id="line2d_59"/>
    <g id="text_15">
     <!-- iof -->
     <g transform="translate(-152.1 700.836562)scale(0.3 -0.3)">
      <use xlink:href="#DejaVuSans-69"/>
      <use x="27.783203" xlink:href="#DejaVuSans-6f"/>
      <use x="88.964844" xlink:href="#DejaVuSans-66"/>
     </g>
    </g>
    <g id="line2d_60">
     <path style="fill:none;stroke:#009a05;stroke-linecap:square;stroke-width:5;"/>
    </g>
    <g id="line2d_61"/>
    <g id="text_16">
     <!-- israel -->
     <g transform="translate(-152.1 744.870937)scale(0.3 -0.3)">
      <use xlink:href="#DejaVuSans-69"/>
      <use x="27.783203" xlink:href="#DejaVuSans-73"/>
      <use x="79.882812" xlink:href="#DejaVuSans-72"/>
      <use x="120.996094" xlink:href="#DejaVuSans-61"/>
      <use x="182.275391" xlink:href="#DejaVuSans-65"/>
      <use x="243.798828" xlink:href="#DejaVuSans-6c"/>
     </g>
    </g>
    <g id="line2d_62">
     <path style="fill:none;stroke:#00af00;stroke-linecap:square;stroke-width:5;"/>
    </g>
    <g id="line2d_63"/>
    <g id="text_17">
     <!-- israel go to hell -->
     <g transform="translate(-152.1 788.905312)scale(0.3 -0.3)">
      <use xlink:href="#DejaVuSans-69"/>
      <use x="27.783203" xlink:href="#DejaVuSans-73"/>
      <use x="79.882812" xlink:href="#DejaVuSans-72"/>
      <use x="120.996094" xlink:href="#DejaVuSans-61"/>
      <use x="182.275391" xlink:href="#DejaVuSans-65"/>
      <use x="243.798828" xlink:href="#DejaVuSans-6c"/>
      <use x="271.582031" xlink:href="#DejaVuSans-20"/>
      <use x="303.369141" xlink:href="#DejaVuSans-67"/>
      <use x="366.845703" xlink:href="#DejaVuSans-6f"/>
      <use x="428.027344" xlink:href="#DejaVuSans-20"/>
      <use x="459.814453" xlink:href="#DejaVuSans-74"/>
      <use x="499.023438" xlink:href="#DejaVuSans-6f"/>
      <use x="560.205078" xlink:href="#DejaVuSans-20"/>
      <use x="591.992188" xlink:href="#DejaVuSans-68"/>
      <use x="655.371094" xlink:href="#DejaVuSans-65"/>
      <use x="716.894531" xlink:href="#DejaVuSans-6c"/>
      <use x="744.677734" xlink:href="#DejaVuSans-6c"/>
     </g>
    </g>
    <g id="line2d_64">
     <path style="fill:none;stroke:#00c700;stroke-linecap:square;stroke-width:5;"/>
    </g>
    <g id="line2d_65"/>
    <g id="text_18">
     <!-- israel out of palestine -->
     <g transform="translate(-152.1 832.939687)scale(0.3 -0.3)">
      <use xlink:href="#DejaVuSans-69"/>
      <use x="27.783203" xlink:href="#DejaVuSans-73"/>
      <use x="79.882812" xlink:href="#DejaVuSans-72"/>
      <use x="120.996094" xlink:href="#DejaVuSans-61"/>
      <use x="182.275391" xlink:href="#DejaVuSans-65"/>
      <use x="243.798828" xlink:href="#DejaVuSans-6c"/>
      <use x="271.582031" xlink:href="#DejaVuSans-20"/>
      <use x="303.369141" xlink:href="#DejaVuSans-6f"/>
      <use x="364.550781" xlink:href="#DejaVuSans-75"/>
      <use x="427.929688" xlink:href="#DejaVuSans-74"/>
      <use x="467.138672" xlink:href="#DejaVuSans-20"/>
      <use x="498.925781" xlink:href="#DejaVuSans-6f"/>
      <use x="560.107422" xlink:href="#DejaVuSans-66"/>
      <use x="595.3125" xlink:href="#DejaVuSans-20"/>
      <use x="627.099609" xlink:href="#DejaVuSans-70"/>
      <use x="690.576172" xlink:href="#DejaVuSans-61"/>
      <use x="751.855469" xlink:href="#DejaVuSans-6c"/>
      <use x="779.638672" xlink:href="#DejaVuSans-65"/>
      <use x="841.162109" xlink:href="#DejaVuSans-73"/>
      <use x="893.261719" xlink:href="#DejaVuSans-74"/>
      <use x="932.470703" xlink:href="#DejaVuSans-69"/>
      <use x="960.253906" xlink:href="#DejaVuSans-6e"/>
      <use x="1023.632812" xlink:href="#DejaVuSans-65"/>
     </g>
    </g>
    <g id="line2d_66">
     <path style="fill:none;stroke:#00de00;stroke-linecap:square;stroke-width:5;"/>
    </g>
    <g id="line2d_67"/>
    <g id="text_19">
     <!-- jerusalem -->
     <g transform="translate(-152.1 876.974062)scale(0.3 -0.3)">
      <defs>
       <path d="M 603 3500 
L 1178 3500 
L 1178 -63 
Q 1178 -731 923 -1031 
Q 669 -1331 103 -1331 
L -116 -1331 
L -116 -844 
L 38 -844 
Q 366 -844 484 -692 
Q 603 -541 603 -63 
L 603 3500 
z
M 603 4863 
L 1178 4863 
L 1178 4134 
L 603 4134 
L 603 4863 
z
" id="DejaVuSans-6a" transform="scale(0.015625)"/>
      </defs>
      <use xlink:href="#DejaVuSans-6a"/>
      <use x="27.783203" xlink:href="#DejaVuSans-65"/>
      <use x="89.306641" xlink:href="#DejaVuSans-72"/>
      <use x="130.419922" xlink:href="#DejaVuSans-75"/>
      <use x="193.798828" xlink:href="#DejaVuSans-73"/>
      <use x="245.898438" xlink:href="#DejaVuSans-61"/>
      <use x="307.177734" xlink:href="#DejaVuSans-6c"/>
      <use x="334.960938" xlink:href="#DejaVuSans-65"/>
      <use x="396.484375" xlink:href="#DejaVuSans-6d"/>
     </g>
    </g>
    <g id="line2d_68">
     <path style="fill:none;stroke:#00f600;stroke-linecap:square;stroke-width:5;"/>
    </g>
    <g id="line2d_69"/>
    <g id="text_20">
     <!-- long live the intifada -->
     <g transform="translate(-152.1 921.008437)scale(0.3 -0.3)">
      <use xlink:href="#DejaVuSans-6c"/>
      <use x="27.783203" xlink:href="#DejaVuSans-6f"/>
      <use x="88.964844" xlink:href="#DejaVuSans-6e"/>
      <use x="152.34375" xlink:href="#DejaVuSans-67"/>
      <use x="215.820312" xlink:href="#DejaVuSans-20"/>
      <use x="247.607422" xlink:href="#DejaVuSans-6c"/>
      <use x="275.390625" xlink:href="#DejaVuSans-69"/>
      <use x="303.173828" xlink:href="#DejaVuSans-76"/>
      <use x="362.353516" xlink:href="#DejaVuSans-65"/>
      <use x="423.876953" xlink:href="#DejaVuSans-20"/>
      <use x="455.664062" xlink:href="#DejaVuSans-74"/>
      <use x="494.873047" xlink:href="#DejaVuSans-68"/>
      <use x="558.251953" xlink:href="#DejaVuSans-65"/>
      <use x="619.775391" xlink:href="#DejaVuSans-20"/>
      <use x="651.5625" xlink:href="#DejaVuSans-69"/>
      <use x="679.345703" xlink:href="#DejaVuSans-6e"/>
      <use x="742.724609" xlink:href="#DejaVuSans-74"/>
      <use x="781.933594" xlink:href="#DejaVuSans-69"/>
      <use x="809.716797" xlink:href="#DejaVuSans-66"/>
      <use x="844.921875" xlink:href="#DejaVuSans-61"/>
      <use x="906.201172" xlink:href="#DejaVuSans-64"/>
      <use x="969.677734" xlink:href="#DejaVuSans-61"/>
     </g>
    </g>
    <g id="line2d_70">
     <path style="fill:none;stroke:#4dff00;stroke-linecap:square;stroke-width:5;"/>
    </g>
    <g id="line2d_71"/>
    <g id="text_21">
     <!-- nazism and zionism -->
     <g transform="translate(-152.1 965.042812)scale(0.3 -0.3)">
      <use xlink:href="#DejaVuSans-6e"/>
      <use x="63.378906" xlink:href="#DejaVuSans-61"/>
      <use x="124.658203" xlink:href="#DejaVuSans-7a"/>
      <use x="177.148438" xlink:href="#DejaVuSans-69"/>
      <use x="204.931641" xlink:href="#DejaVuSans-73"/>
      <use x="257.03125" xlink:href="#DejaVuSans-6d"/>
      <use x="354.443359" xlink:href="#DejaVuSans-20"/>
      <use x="386.230469" xlink:href="#DejaVuSans-61"/>
      <use x="447.509766" xlink:href="#DejaVuSans-6e"/>
      <use x="510.888672" xlink:href="#DejaVuSans-64"/>
      <use x="574.365234" xlink:href="#DejaVuSans-20"/>
      <use x="606.152344" xlink:href="#DejaVuSans-7a"/>
      <use x="658.642578" xlink:href="#DejaVuSans-69"/>
      <use x="686.425781" xlink:href="#DejaVuSans-6f"/>
      <use x="747.607422" xlink:href="#DejaVuSans-6e"/>
      <use x="810.986328" xlink:href="#DejaVuSans-69"/>
      <use x="838.769531" xlink:href="#DejaVuSans-73"/>
      <use x="890.869141" xlink:href="#DejaVuSans-6d"/>
     </g>
    </g>
    <g id="line2d_72">
     <path style="fill:none;stroke:#c0fd00;stroke-linecap:square;stroke-width:5;"/>
    </g>
    <g id="line2d_73"/>
    <g id="text_22">
     <!-- no more money for israel’s crimes -->
     <g transform="translate(-152.1 1009.077187)scale(0.3 -0.3)">
      <defs>
       <path d="M 2059 -325 
Q 1816 -950 1584 -1140 
Q 1353 -1331 966 -1331 
L 506 -1331 
L 506 -850 
L 844 -850 
Q 1081 -850 1212 -737 
Q 1344 -625 1503 -206 
L 1606 56 
L 191 3500 
L 800 3500 
L 1894 763 
L 2988 3500 
L 3597 3500 
L 2059 -325 
z
" id="DejaVuSans-79" transform="scale(0.015625)"/>
       <path d="M 813 4666 
L 1472 4666 
L 1472 4191 
L 959 3194 
L 556 3194 
L 813 4191 
L 813 4666 
z
" id="DejaVuSans-2019" transform="scale(0.015625)"/>
      </defs>
      <use xlink:href="#DejaVuSans-6e"/>
      <use x="63.378906" xlink:href="#DejaVuSans-6f"/>
      <use x="124.560547" xlink:href="#DejaVuSans-20"/>
      <use x="156.347656" xlink:href="#DejaVuSans-6d"/>
      <use x="253.759766" xlink:href="#DejaVuSans-6f"/>
      <use x="314.941406" xlink:href="#DejaVuSans-72"/>
      <use x="353.804688" xlink:href="#DejaVuSans-65"/>
      <use x="415.328125" xlink:href="#DejaVuSans-20"/>
      <use x="447.115234" xlink:href="#DejaVuSans-6d"/>
      <use x="544.527344" xlink:href="#DejaVuSans-6f"/>
      <use x="605.708984" xlink:href="#DejaVuSans-6e"/>
      <use x="669.087891" xlink:href="#DejaVuSans-65"/>
      <use x="730.611328" xlink:href="#DejaVuSans-79"/>
      <use x="789.791016" xlink:href="#DejaVuSans-20"/>
      <use x="821.578125" xlink:href="#DejaVuSans-66"/>
      <use x="856.783203" xlink:href="#DejaVuSans-6f"/>
      <use x="917.964844" xlink:href="#DejaVuSans-72"/>
      <use x="959.078125" xlink:href="#DejaVuSans-20"/>
      <use x="990.865234" xlink:href="#DejaVuSans-69"/>
      <use x="1018.648438" xlink:href="#DejaVuSans-73"/>
      <use x="1070.748047" xlink:href="#DejaVuSans-72"/>
      <use x="1111.861328" xlink:href="#DejaVuSans-61"/>
      <use x="1173.140625" xlink:href="#DejaVuSans-65"/>
      <use x="1234.664062" xlink:href="#DejaVuSans-6c"/>
      <use x="1262.447266" xlink:href="#DejaVuSans-2019"/>
      <use x="1294.234375" xlink:href="#DejaVuSans-73"/>
      <use x="1346.333984" xlink:href="#DejaVuSans-20"/>
      <use x="1378.121094" xlink:href="#DejaVuSans-63"/>
      <use x="1433.101562" xlink:href="#DejaVuSans-72"/>
      <use x="1474.214844" xlink:href="#DejaVuSans-69"/>
      <use x="1501.998047" xlink:href="#DejaVuSans-6d"/>
      <use x="1599.410156" xlink:href="#DejaVuSans-65"/>
      <use x="1660.933594" xlink:href="#DejaVuSans-73"/>
     </g>
    </g>
    <g id="line2d_74">
     <path style="fill:none;stroke:#e3f200;stroke-linecap:square;stroke-width:5;"/>
    </g>
    <g id="line2d_75"/>
    <g id="text_23">
     <!-- no peace on stolen land -->
     <g transform="translate(-152.1 1053.111562)scale(0.3 -0.3)">
      <use xlink:href="#DejaVuSans-6e"/>
      <use x="63.378906" xlink:href="#DejaVuSans-6f"/>
      <use x="124.560547" xlink:href="#DejaVuSans-20"/>
      <use x="156.347656" xlink:href="#DejaVuSans-70"/>
      <use x="219.824219" xlink:href="#DejaVuSans-65"/>
      <use x="281.347656" xlink:href="#DejaVuSans-61"/>
      <use x="342.626953" xlink:href="#DejaVuSans-63"/>
      <use x="397.607422" xlink:href="#DejaVuSans-65"/>
      <use x="459.130859" xlink:href="#DejaVuSans-20"/>
      <use x="490.917969" xlink:href="#DejaVuSans-6f"/>
      <use x="552.099609" xlink:href="#DejaVuSans-6e"/>
      <use x="615.478516" xlink:href="#DejaVuSans-20"/>
      <use x="647.265625" xlink:href="#DejaVuSans-73"/>
      <use x="699.365234" xlink:href="#DejaVuSans-74"/>
      <use x="738.574219" xlink:href="#DejaVuSans-6f"/>
      <use x="799.755859" xlink:href="#DejaVuSans-6c"/>
      <use x="827.539062" xlink:href="#DejaVuSans-65"/>
      <use x="889.0625" xlink:href="#DejaVuSans-6e"/>
      <use x="952.441406" xlink:href="#DejaVuSans-20"/>
      <use x="984.228516" xlink:href="#DejaVuSans-6c"/>
      <use x="1012.011719" xlink:href="#DejaVuSans-61"/>
      <use x="1073.291016" xlink:href="#DejaVuSans-6e"/>
      <use x="1136.669922" xlink:href="#DejaVuSans-64"/>
     </g>
    </g>
    <g id="line2d_76">
     <path style="fill:none;stroke:#f6de00;stroke-linecap:square;stroke-width:5;"/>
    </g>
    <g id="line2d_77"/>
    <g id="text_24">
     <!-- noa argamani -->
     <g transform="translate(-152.1 1097.145937)scale(0.3 -0.3)">
      <use xlink:href="#DejaVuSans-6e"/>
      <use x="63.378906" xlink:href="#DejaVuSans-6f"/>
      <use x="124.560547" xlink:href="#DejaVuSans-61"/>
      <use x="185.839844" xlink:href="#DejaVuSans-20"/>
      <use x="217.626953" xlink:href="#DejaVuSans-61"/>
      <use x="278.90625" xlink:href="#DejaVuSans-72"/>
      <use x="318.269531" xlink:href="#DejaVuSans-67"/>
      <use x="381.746094" xlink:href="#DejaVuSans-61"/>
      <use x="443.025391" xlink:href="#DejaVuSans-6d"/>
      <use x="540.4375" xlink:href="#DejaVuSans-61"/>
      <use x="601.716797" xlink:href="#DejaVuSans-6e"/>
      <use x="665.095703" xlink:href="#DejaVuSans-69"/>
     </g>
    </g>
    <g id="line2d_78">
     <path style="fill:none;stroke:#ffc300;stroke-linecap:square;stroke-width:5;"/>
    </g>
    <g id="line2d_79"/>
    <g id="text_25">
     <!-- palestine -->
     <g transform="translate(-152.1 1141.180312)scale(0.3 -0.3)">
      <use xlink:href="#DejaVuSans-70"/>
      <use x="63.476562" xlink:href="#DejaVuSans-61"/>
      <use x="124.755859" xlink:href="#DejaVuSans-6c"/>
      <use x="152.539062" xlink:href="#DejaVuSans-65"/>
      <use x="214.0625" xlink:href="#DejaVuSans-73"/>
      <use x="266.162109" xlink:href="#DejaVuSans-74"/>
      <use x="305.371094" xlink:href="#DejaVuSans-69"/>
      <use x="333.154297" xlink:href="#DejaVuSans-6e"/>
      <use x="396.533203" xlink:href="#DejaVuSans-65"/>
     </g>
    </g>
    <g id="line2d_80">
     <path style="fill:none;stroke:#ffa000;stroke-linecap:square;stroke-width:5;"/>
    </g>
    <g id="line2d_81"/>
    <g id="text_26">
     <!-- palestine is arab -->
     <g transform="translate(-152.1 1185.214687)scale(0.3 -0.3)">
      <use xlink:href="#DejaVuSans-70"/>
      <use x="63.476562" xlink:href="#DejaVuSans-61"/>
      <use x="124.755859" xlink:href="#DejaVuSans-6c"/>
      <use x="152.539062" xlink:href="#DejaVuSans-65"/>
      <use x="214.0625" xlink:href="#DejaVuSans-73"/>
      <use x="266.162109" xlink:href="#DejaVuSans-74"/>
      <use x="305.371094" xlink:href="#DejaVuSans-69"/>
      <use x="333.154297" xlink:href="#DejaVuSans-6e"/>
      <use x="396.533203" xlink:href="#DejaVuSans-65"/>
      <use x="458.056641" xlink:href="#DejaVuSans-20"/>
      <use x="489.84375" xlink:href="#DejaVuSans-69"/>
      <use x="517.626953" xlink:href="#DejaVuSans-73"/>
      <use x="569.726562" xlink:href="#DejaVuSans-20"/>
      <use x="601.513672" xlink:href="#DejaVuSans-61"/>
      <use x="662.792969" xlink:href="#DejaVuSans-72"/>
      <use x="703.90625" xlink:href="#DejaVuSans-61"/>
      <use x="765.185547" xlink:href="#DejaVuSans-62"/>
     </g>
    </g>
    <g id="line2d_82">
     <path style="fill:none;stroke:#ff4500;stroke-linecap:square;stroke-width:5;"/>
    </g>
    <g id="line2d_83"/>
    <g id="text_27">
     <!-- resistance is justified -->
     <g transform="translate(-152.1 1229.249062)scale(0.3 -0.3)">
      <use xlink:href="#DejaVuSans-72"/>
      <use x="38.863281" xlink:href="#DejaVuSans-65"/>
      <use x="100.386719" xlink:href="#DejaVuSans-73"/>
      <use x="152.486328" xlink:href="#DejaVuSans-69"/>
      <use x="180.269531" xlink:href="#DejaVuSans-73"/>
      <use x="232.369141" xlink:href="#DejaVuSans-74"/>
      <use x="271.578125" xlink:href="#DejaVuSans-61"/>
      <use x="332.857422" xlink:href="#DejaVuSans-6e"/>
      <use x="396.236328" xlink:href="#DejaVuSans-63"/>
      <use x="451.216797" xlink:href="#DejaVuSans-65"/>
      <use x="512.740234" xlink:href="#DejaVuSans-20"/>
      <use x="544.527344" xlink:href="#DejaVuSans-69"/>
      <use x="572.310547" xlink:href="#DejaVuSans-73"/>
      <use x="624.410156" xlink:href="#DejaVuSans-20"/>
      <use x="656.197266" xlink:href="#DejaVuSans-6a"/>
      <use x="683.980469" xlink:href="#DejaVuSans-75"/>
      <use x="747.359375" xlink:href="#DejaVuSans-73"/>
      <use x="799.458984" xlink:href="#DejaVuSans-74"/>
      <use x="838.667969" xlink:href="#DejaVuSans-69"/>
      <use x="866.451172" xlink:href="#DejaVuSans-66"/>
      <use x="901.65625" xlink:href="#DejaVuSans-69"/>
      <use x="929.439453" xlink:href="#DejaVuSans-65"/>
      <use x="990.962891" xlink:href="#DejaVuSans-64"/>
     </g>
    </g>
    <g id="line2d_84">
     <path style="fill:none;stroke:#f70000;stroke-linecap:square;stroke-width:5;"/>
    </g>
    <g id="line2d_85"/>
    <g id="text_28">
     <!-- the river to the sea -->
     <g transform="translate(-152.1 1273.283437)scale(0.3 -0.3)">
      <use xlink:href="#DejaVuSans-74"/>
      <use x="39.208984" xlink:href="#DejaVuSans-68"/>
      <use x="102.587891" xlink:href="#DejaVuSans-65"/>
      <use x="164.111328" xlink:href="#DejaVuSans-20"/>
      <use x="195.898438" xlink:href="#DejaVuSans-72"/>
      <use x="237.011719" xlink:href="#DejaVuSans-69"/>
      <use x="264.794922" xlink:href="#DejaVuSans-76"/>
      <use x="323.974609" xlink:href="#DejaVuSans-65"/>
      <use x="385.498047" xlink:href="#DejaVuSans-72"/>
      <use x="426.611328" xlink:href="#DejaVuSans-20"/>
      <use x="458.398438" xlink:href="#DejaVuSans-74"/>
      <use x="497.607422" xlink:href="#DejaVuSans-6f"/>
      <use x="558.789062" xlink:href="#DejaVuSans-20"/>
      <use x="590.576172" xlink:href="#DejaVuSans-74"/>
      <use x="629.785156" xlink:href="#DejaVuSans-68"/>
      <use x="693.164062" xlink:href="#DejaVuSans-65"/>
      <use x="754.6875" xlink:href="#DejaVuSans-20"/>
      <use x="786.474609" xlink:href="#DejaVuSans-73"/>
      <use x="838.574219" xlink:href="#DejaVuSans-65"/>
      <use x="900.097656" xlink:href="#DejaVuSans-61"/>
     </g>
    </g>
    <g id="line2d_86">
     <path style="fill:none;stroke:#df0000;stroke-linecap:square;stroke-width:5;"/>
    </g>
    <g id="line2d_87"/>
    <g id="text_29">
     <!-- zionist -->
     <g transform="translate(-152.1 1317.317812)scale(0.3 -0.3)">
      <use xlink:href="#DejaVuSans-7a"/>
      <use x="52.490234" xlink:href="#DejaVuSans-69"/>
      <use x="80.273438" xlink:href="#DejaVuSans-6f"/>
      <use x="141.455078" xlink:href="#DejaVuSans-6e"/>
      <use x="204.833984" xlink:href="#DejaVuSans-69"/>
      <use x="232.617188" xlink:href="#DejaVuSans-73"/>
      <use x="284.716797" xlink:href="#DejaVuSans-74"/>
     </g>
    </g>
   </g>
  </g>
 </g>
</svg>
